<svg width="24" height="24" viewBox="0 0 24 24" fill="none" xmlns="http://www.w3.org/2000/svg">
<g clip-path="url(#clip0_0_624)">
<circle cx="12" cy="12" r="11.5" stroke="#AC8EC9"/>
<path fill-rule="evenodd" clip-rule="evenodd" d="M16.8837 10.6778L12.3252 15.6482C12.311 15.6691 12.316 15.6966 12.2973 15.715C12.2156 15.7975 12.1063 15.8334 11.9983 15.8284C11.8916 15.8321 11.7844 15.7963 11.7023 15.715C11.6844 15.6966 11.6894 15.6695 11.6756 15.6495L7.11633 10.6791C6.96122 10.5236 6.96122 10.2722 7.11633 10.1166C7.27143 9.96195 7.52285 9.96195 7.67837 10.1166L12 14.8289L16.322 10.1166C16.4772 9.96112 16.729 9.96112 16.8837 10.1166C17.0388 10.2717 17.0388 10.5232 16.8837 10.6778" fill="#AC8EC9"/>
</g>
<defs>
<clipPath id="clip0_0_624">
<rect width="24" height="24" fill="white"/>
</clipPath>
</defs>
</svg>
